<?xml version="1.0" encoding="UTF-8" standalone="no"?>
<!DOCTYPE svg PUBLIC "-//W3C//DTD SVG 1.1//EN" "http://www.w3.org/Graphics/SVG/1.1/DTD/svg11.dtd">
<svg version="1.1" xmlns="http://www.w3.org/2000/svg" xmlns:xlink="http://www.w3.org/1999/xlink" preserveAspectRatio="xMidYMid meet" viewBox="0 0 640 640" width="128" height="128"><defs><path d="M610.46 299.71C625.5 308.83 628.46 320.92 619.34 335.97C555.28 441.58 519.7 500.26 512.58 511.99C503.46 527.04 491.37 530 476.33 520.87C405.91 478.17 366.8 454.45 358.97 449.7C343.93 440.58 340.97 428.49 350.09 413.45C414.15 307.83 449.73 249.15 456.85 237.42C465.98 222.37 478.06 219.41 493.11 228.54C563.52 271.24 602.63 294.97 610.46 299.71Z" id="baueRW7iI"></path><path d="M413.76 192.54C430.65 197.46 436.64 208.37 431.72 225.26C397.19 343.86 378 409.75 374.16 422.93C369.24 439.82 358.33 445.81 341.44 440.89C262.38 417.86 218.45 405.07 209.67 402.51C192.77 397.59 186.78 386.69 191.7 369.79C226.24 251.2 245.43 185.31 249.27 172.13C254.18 155.24 265.09 149.25 281.99 154.17C361.05 177.19 404.98 189.98 413.76 192.54Z" id="c1RFAq0R1W"></path><path d="M199.7 142.61C217.3 142.99 225.9 151.97 225.52 169.56C222.86 293.06 221.38 361.67 221.08 375.39C220.7 392.98 211.72 401.59 194.12 401.21C111.79 399.43 66.06 398.44 56.91 398.25C39.32 397.87 30.71 388.88 31.09 371.29C33.75 247.79 35.23 179.19 35.53 165.46C35.91 147.87 44.9 139.27 62.49 139.65C144.82 141.42 190.56 142.41 199.7 142.61Z" id="a6IiY072j4"></path></defs><g><g><g><use xlink:href="#baueRW7iI" opacity="1" fill="#00a9ff" fill-opacity="1"></use><g><use xlink:href="#baueRW7iI" opacity="1" fill-opacity="0" stroke="#ffffff" stroke-width="1.5" stroke-opacity="1"></use></g></g><g><use xlink:href="#c1RFAq0R1W" opacity="1" fill="#0090ff" fill-opacity="1"></use><g><use xlink:href="#c1RFAq0R1W" opacity="1" fill-opacity="0" stroke="#ffffff" stroke-width="1.5" stroke-opacity="1"></use></g></g><g><use xlink:href="#a6IiY072j4" opacity="1" fill="#0072ff" fill-opacity="1"></use><g><use xlink:href="#a6IiY072j4" opacity="1" fill-opacity="0" stroke="#ffffff" stroke-width="1.5" stroke-opacity="1"></use></g></g></g></g></svg>